<svg xmlns="http://www.w3.org/2000/svg" viewBox="0 0 512 512" role="img" aria-label="Daangn">
  <rect x="56" y="56" width="400" height="400" rx="88" fill="#fff"/>
  <path d="M255 378c-56-28-91-67-91-116 0-49 40-89 89-89s89 40 89 89c0 49-32 88-87 116z" fill="#ff6f0f"/>
  <circle cx="253" cy="257" r="32" fill="#fff"/>
  <path d="M229 149c7-36 41-60 77-54 38 7 62 43 55 80-7 38-44 57-83 54-34-2-57-28-49-80z" fill="#00a05b"/>
  <path d="M201 113c31-2 58 21 61 52 3 31-21 57-52 60-31 3-57-17-60-48-3-31 20-62 51-64z" fill="#00a05b"/>
</svg>
