<svg xmlns="http://www.w3.org/2000/svg" viewBox="0 0 520 320" role="img" aria-labelledby="title desc"><title id="title">댕댕런 실제 GPS 경로</title><desc id="desc">공개 GPX 데이터로 그린 경복궁 댕댕런 경로 궤적</desc><rect width="100%" height="100%" rx="24" fill="#edf7fb"/><g stroke="#cfe1ea" stroke-width="1" opacity=".65"><path d="M0 80H520M0 160H520M0 240H520M130 0V320M260 0V320M390 0V320"/></g><path d="M114.4,162.1 L108.3,161.8 L100.9,161.6 L93.3,161.2 L85.4,160.7 L78.3,159.3 L74.5,156.8 L71.9,153.1 L66.0,152.0 L59.0,151.7 L51.7,151.4 L50.3,145.2 L47.9,139.5 L46.2,134.4 L44.7,128.5 L40.5,123.1 L37.8,117.6 L36.4,111.4 L34.4,106.3 L38.4,105.0 L42.9,109.1 L44.5,115.9 L37.4,117.9 L36.3,111.8 L34.0,105.6 L40.9,105.2 L49.1,105.8 L57.2,105.9 L65.4,107.1 L68.1,103.2 L68.1,97.3 L67.2,91.3 L66.6,84.7 L66.4,77.8 L66.0,70.8 L66.1,63.6 L65.8,57.6 L65.6,51.2 L68.8,47.5 L72.0,42.6 L78.4,40.4 L85.7,39.3 L93.4,37.7 L101.1,36.8 L109.8,36.3 L117.8,35.3 L126.6,36.5 L135.3,38.2 L143.2,40.2 L151.8,41.0 L161.0,42.9 L162.6,36.7 L170.0,34.0 L178.3,34.7 L187.0,34.5 L196.0,35.1 L198.4,41.5 L198.5,48.9 L199.4,55.6 L196.4,62.2 L189.8,67.0 L187.6,70.0 L192.2,74.6 L195.4,81.4 L199.1,87.4 L203.1,93.7 L205.8,98.9 L204.8,105.1 L204.8,111.1 L204.4,117.4 L206.1,123.3 L208.1,129.7 L210.1,136.1 L211.1,142.7 L212.4,149.2 L215.1,156.0 L218.9,162.1 L226.1,162.7 L232.8,160.2 L240.2,157.3 L247.5,154.5 L254.6,150.7 L262.1,147.6 L267.2,144.5 L270.4,142.6 L276.3,140.0 L284.2,138.0 L292.9,136.7 L301.8,136.2 L310.9,136.0 L317.9,134.8 L317.7,128.2 L317.2,121.9 L316.6,116.5 L317.3,111.2 L318.8,105.4 L318.8,99.2 L318.0,92.1 L319.5,98.2 L318.9,105.4 L319.1,112.1 L318.7,119.0 L319.9,126.0 L320.5,132.9 L326.6,136.5 L332.1,140.2 L336.4,146.5 L338.4,153.8 L340.9,160.7 L342.9,167.8 L345.1,174.6 L347.3,182.0 L349.3,188.8 L357.0,188.8 L364.8,187.6 L369.3,193.1 L373.5,198.5 L376.9,204.1 L380.9,209.6 L383.8,215.1 L386.7,218.5 L392.7,223.0 L400.6,224.0 L407.2,228.3 L410.7,234.9 L412.7,241.7 L413.8,247.8 L416.2,253.7 L416.8,260.8 L415.0,265.8 L419.2,272.4 L415.0,278.2 L407.1,279.2 L399.6,279.6 L390.8,279.9 L382.0,280.5 L374.9,280.8 L367.4,281.5 L358.7,281.8 L349.8,282.6 L341.4,283.7 L332.8,284.4 L325.0,285.1 L317.1,285.7 L308.9,286.0 L300.6,285.9 L295.6,284.6 L295.6,278.2 L296.4,271.9 L296.6,265.1 L297.0,258.9 L290.4,257.3 L281.7,256.7 L273.0,256.7 L263.7,256.8 L254.5,256.2 L245.9,256.9 L237.0,256.2 L228.2,256.2 L221.5,258.1 L219.2,264.6 L219.0,271.8 L217.5,278.4 L210.0,279.5 L202.2,278.7 L194.1,278.1 L186.4,277.0 L178.3,277.0 L171.3,276.1 L165.7,274.5 L158.6,274.7 L150.5,274.7 L141.6,273.4 L132.5,273.0 L130.0,267.8 L129.1,261.2 L126.9,255.6 L126.9,248.6 L128.5,243.0 L128.4,236.0 L127.8,229.3 L127.8,222.5 L127.2,215.6 L126.2,208.7 L126.2,201.5 L126.9,194.1 L126.9,187.0 L126.1,179.8 L125.5,173.3 L121.7,169.7 L117.1,165.0" fill="none" stroke="#d95400" stroke-width="8" stroke-linecap="round" stroke-linejoin="round"/><path d="M114.4,162.1 L108.3,161.8 L100.9,161.6 L93.3,161.2 L85.4,160.7 L78.3,159.3 L74.5,156.8 L71.9,153.1 L66.0,152.0 L59.0,151.7 L51.7,151.4 L50.3,145.2 L47.9,139.5 L46.2,134.4 L44.7,128.5 L40.5,123.1 L37.8,117.6 L36.4,111.4 L34.4,106.3 L38.4,105.0 L42.9,109.1 L44.5,115.9 L37.4,117.9 L36.3,111.8 L34.0,105.6 L40.9,105.2 L49.1,105.8 L57.2,105.9 L65.4,107.1 L68.1,103.2 L68.1,97.3 L67.2,91.3 L66.6,84.7 L66.4,77.8 L66.0,70.8 L66.1,63.6 L65.8,57.6 L65.6,51.2 L68.8,47.5 L72.0,42.6 L78.4,40.4 L85.7,39.3 L93.4,37.7 L101.1,36.8 L109.8,36.3 L117.8,35.3 L126.6,36.5 L135.3,38.2 L143.2,40.2 L151.8,41.0 L161.0,42.9 L162.6,36.7 L170.0,34.0 L178.3,34.7 L187.0,34.5 L196.0,35.1 L198.4,41.5 L198.5,48.9 L199.4,55.6 L196.4,62.2 L189.8,67.0 L187.6,70.0 L192.2,74.6 L195.4,81.4 L199.1,87.4 L203.1,93.7 L205.8,98.9 L204.8,105.1 L204.8,111.1 L204.4,117.4 L206.1,123.3 L208.1,129.7 L210.1,136.1 L211.1,142.7 L212.4,149.2 L215.1,156.0 L218.9,162.1 L226.1,162.7 L232.8,160.2 L240.2,157.3 L247.5,154.5 L254.6,150.7 L262.1,147.6 L267.2,144.5 L270.4,142.6 L276.3,140.0 L284.2,138.0 L292.9,136.7 L301.8,136.2 L310.9,136.0 L317.9,134.8 L317.7,128.2 L317.2,121.9 L316.6,116.5 L317.3,111.2 L318.8,105.4 L318.8,99.2 L318.0,92.1 L319.5,98.2 L318.9,105.4 L319.1,112.1 L318.7,119.0 L319.9,126.0 L320.5,132.9 L326.6,136.5 L332.1,140.2 L336.4,146.5 L338.4,153.8 L340.9,160.7 L342.9,167.8 L345.1,174.6 L347.3,182.0 L349.3,188.8 L357.0,188.8 L364.8,187.6 L369.3,193.1 L373.5,198.5 L376.9,204.1 L380.9,209.6 L383.8,215.1 L386.7,218.5 L392.7,223.0 L400.6,224.0 L407.2,228.3 L410.7,234.9 L412.7,241.7 L413.8,247.8 L416.2,253.7 L416.8,260.8 L415.0,265.8 L419.2,272.4 L415.0,278.2 L407.1,279.2 L399.6,279.6 L390.8,279.9 L382.0,280.5 L374.9,280.8 L367.4,281.5 L358.7,281.8 L349.8,282.6 L341.4,283.7 L332.8,284.4 L325.0,285.1 L317.1,285.7 L308.9,286.0 L300.6,285.9 L295.6,284.6 L295.6,278.2 L296.4,271.9 L296.6,265.1 L297.0,258.9 L290.4,257.3 L281.7,256.7 L273.0,256.7 L263.7,256.8 L254.5,256.2 L245.9,256.9 L237.0,256.2 L228.2,256.2 L221.5,258.1 L219.2,264.6 L219.0,271.8 L217.5,278.4 L210.0,279.5 L202.2,278.7 L194.1,278.1 L186.4,277.0 L178.3,277.0 L171.3,276.1 L165.7,274.5 L158.6,274.7 L150.5,274.7 L141.6,273.4 L132.5,273.0 L130.0,267.8 L129.1,261.2 L126.9,255.6 L126.9,248.6 L128.5,243.0 L128.4,236.0 L127.8,229.3 L127.8,222.5 L127.2,215.6 L126.2,208.7 L126.2,201.5 L126.9,194.1 L126.9,187.0 L126.1,179.8 L125.5,173.3 L121.7,169.7 L117.1,165.0" fill="none" stroke="#ffb27f" stroke-width="2" stroke-linecap="round" stroke-linejoin="round"/><circle cx="114.4" cy="162.1" r="9" fill="#18364d" stroke="#fff" stroke-width="4"/><circle cx="117.1" cy="165.0" r="9" fill="#d95400" stroke="#fff" stroke-width="4"/><g font-family="Arial,sans-serif"><text x="24" y="30" fill="#18364d" font-size="14" font-weight="700">ACTUAL GPX TRACE</text><text x="496" y="298" text-anchor="end" fill="#62788a" font-size="12">경복궁 댕댕런</text></g></svg>